<svg width="20" height="20" viewBox="0 0 20 20" fill="none" xmlns="http://www.w3.org/2000/svg">
<circle cx="10.4191" cy="10.4168" r="7.68226" fill="#F8F8F8"/>
<path d="M9.23694 13.6162L6.28223 10.6609L7.11723 9.82587L9.23694 11.945L13.7192 7.4621L14.5554 8.29828L9.23694 13.6162Z" fill="black"/>
<path d="M10.4187 2.14368C8.78243 2.14368 7.18289 2.62889 5.82237 3.53796C4.46185 4.44703 3.40145 5.73913 2.77527 7.25086C2.14909 8.76259 1.98526 10.4261 2.30448 12.0309C2.6237 13.6357 3.41165 15.1099 4.56868 16.2669C5.72571 17.4239 7.19985 18.2119 8.80469 18.5311C10.4095 18.8503 12.073 18.6865 13.5847 18.0603C15.0965 17.4341 16.3886 16.3737 17.2976 15.0132C18.2067 13.6527 18.6919 12.0532 18.6919 10.4169C18.6919 8.22269 17.8203 6.11837 16.2688 4.56684C14.7172 3.01532 12.6129 2.14368 10.4187 2.14368ZM10.4187 17.5082C9.01619 17.5082 7.64515 17.0923 6.47899 16.3131C5.31283 15.5339 4.40392 14.4264 3.86719 13.1306C3.33047 11.8348 3.19004 10.409 3.46366 9.03343C3.73728 7.65785 4.41266 6.3943 5.4044 5.40256C6.39614 4.41082 7.65969 3.73544 9.03527 3.46182C10.4109 3.1882 11.8367 3.32863 13.1324 3.86536C14.4282 4.40208 15.5357 5.311 16.3149 6.47716C17.0941 7.64332 17.51 9.01435 17.51 10.4169C17.51 12.2976 16.7629 14.1013 15.433 15.4312C14.1032 16.7611 12.2995 17.5082 10.4187 17.5082Z" fill="black"/>
</svg>
